#Comment line ignore any data following # character 
#Hierarchical Translation and Rotation (.htr) file 
[Header]	
#Header keywords are followed by a single value 
FileType HTR		#Single word string
DataType HTRS		#Translation followed by rotation and scale data
FileVersion 1		#integer
NumSegments 84		#integer
NumFrames 2		#integer
DataFrameRate 30		#integer, data frame rate in this file
EulerRotationOrder ZYX
CalibrationUnits mm
RotationUnits Degrees
GlobalAxisofGravity Y
BoneLengthAxis Y
ScaleFactor 1.00
[SegmentNames&Hierarchy]
#CHILD	PARENT
MASTER GLOBAL
root MASTER
chest root
L_mid_tent01 root
R_mid_tent01 root
spine01 root
Bip01_Neck chest
L_humerus chest
R_humerus chest
weapon_bone chest
Bip01_Head Bip01_Neck
eye_left_bone Bip01_Head
eye_right_bone Bip01_Head
L_forearm L_humerus
L_front_hand L_forearm
L_weapon_bone L_forearm
L_front_hand01_01 L_front_hand
L_front_hand02_01 L_front_hand
L_front_hand03_01 L_front_hand
L_front_hand01_02 L_front_hand01_01
L_front_hand02_02 L_front_hand02_01
L_front_hand03_02 L_front_hand03_01
R_forearm R_humerus
R_front_hand R_forearm
R_weapon_bone R_forearm
R_front_hand01_01 R_front_hand
R_front_hand02_01 R_front_hand
R_front_hand03_01 R_front_hand
R_front_hand01_02 R_front_hand01_01
R_front_hand02_02 R_front_hand02_01
R_front_hand03_02 R_front_hand03_01
null_rope01_connect L_mid_tent01
Rope1_Seg01 null_rope01_connect
Rope1_Seg02 Rope1_Seg01
Rope1_Seg03 Rope1_Seg02
Rope1_Seg04 Rope1_Seg03
Rope1_Seg05 Rope1_Seg04
Rope1_Seg06 Rope1_Seg05
Rope1_Seg07 Rope1_Seg06
Rope1_Seg09 Rope1_Seg07
L_mid_hand01 Rope1_Seg09
L_mid_hand02 Rope1_Seg09
L_mid_hand03 Rope1_Seg09
null_rope02_connect R_mid_tent01
Rope2_Seg01 null_rope02_connect
Rope2_Seg02 Rope2_Seg01
Rope2_Seg03 Rope2_Seg02
Rope2_Seg04 Rope2_Seg03
Rope2_Seg05 Rope2_Seg04
Rope2_Seg06 Rope2_Seg05
Rope2_Seg07 Rope2_Seg06
Rope2_Seg09 Rope2_Seg07
R_mid_hand01 Rope2_Seg09
R_mid_hand02 Rope2_Seg09
R_mid_hand03 Rope2_Seg09
spine02 spine01
spine03 spine02
pelvis spine03
null_rope03_connect pelvis
null_rope04_connect pelvis
Rope3_Seg01 null_rope03_connect
Rope3_Seg02 Rope3_Seg01
Rope3_Seg03 Rope3_Seg02
Rope3_Seg04 Rope3_Seg03
Rope3_Seg05 Rope3_Seg04
Rope3_Seg06 Rope3_Seg05
Rope3_Seg07 Rope3_Seg06
Rope3_Seg08 Rope3_Seg07
Rope3_Seg09 Rope3_Seg08
R_rear_hand01 Rope3_Seg09
R_rear_hand02 Rope3_Seg09
R_rear_hand03 Rope3_Seg09
Rope4_Seg01 null_rope04_connect
Rope4_Seg02 Rope4_Seg01
Rope4_Seg03 Rope4_Seg02
Rope4_Seg04 Rope4_Seg03
Rope4_Seg05 Rope4_Seg04
Rope4_Seg06 Rope4_Seg05
Rope4_Seg07 Rope4_Seg06
Rope4_Seg08 Rope4_Seg07
Rope4_Seg09 Rope4_Seg08
L_rear_hand01 Rope4_Seg09
L_rear_hand02 Rope4_Seg09
L_rear_hand03 Rope4_Seg09
[BasePosition]
#SegmentName Tx, Ty, Tz, Rx, Ry, Rz, BoneLength
MASTER 0.000000 0.000000 0.000000 -90.000000 0.000000 0.000000 10.000000 
root 0.000000 0.000000 0.000000 0.000000 0.000000 0.000000 10.000000 
chest 0.000000 0.000000 0.000000 0.000000 0.000000 0.000000 10.000000 
L_mid_tent01 0.000000 0.000000 0.000000 0.000000 0.000000 0.000000 10.000000 
R_mid_tent01 0.000000 0.000000 0.000000 0.000000 0.000000 0.000000 10.000000 
spine01 0.000000 0.000000 0.000000 0.000000 0.000000 0.000000 10.000000 
Bip01_Neck 0.000000 0.000000 0.000000 0.000000 0.000000 0.000000 10.000000 
L_humerus 0.000000 0.000000 0.000000 0.000000 0.000000 0.000000 10.000000 
R_humerus 0.000000 0.000000 0.000000 0.000000 0.000000 0.000000 10.000000 
weapon_bone 0.000000 0.000000 0.000000 0.000000 0.000000 0.000000 10.000000 
Bip01_Head 0.000000 0.000000 0.000000 0.000000 0.000000 0.000000 10.000000 
eye_left_bone 0.000000 0.000000 0.000000 0.000000 0.000000 0.000000 10.000000 
eye_right_bone 0.000000 0.000000 0.000000 0.000000 0.000000 0.000000 10.000000 
L_forearm 0.000000 0.000000 0.000000 0.000000 0.000000 0.000000 10.000000 
L_front_hand 0.000000 0.000000 0.000000 0.000000 0.000000 0.000000 10.000000 
L_weapon_bone 0.000000 0.000000 0.000000 0.000000 0.000000 0.000000 10.000000 
L_front_hand01_01 0.000000 0.000000 0.000000 0.000000 0.000000 0.000000 10.000000 
L_front_hand02_01 0.000000 0.000000 0.000000 0.000000 0.000000 0.000000 10.000000 
L_front_hand03_01 0.000000 0.000000 0.000000 0.000000 0.000000 0.000000 10.000000 
L_front_hand01_02 0.000000 0.000000 0.000000 0.000000 0.000000 0.000000 10.000000 
L_front_hand02_02 0.000000 0.000000 0.000000 0.000000 0.000000 0.000000 10.000000 
L_front_hand03_02 0.000000 0.000000 0.000000 0.000000 0.000000 0.000000 10.000000 
R_forearm 0.000000 0.000000 0.000000 0.000000 0.000000 0.000000 10.000000 
R_front_hand 0.000000 0.000000 0.000000 0.000000 0.000000 0.000000 10.000000 
R_weapon_bone 0.000000 0.000000 0.000000 0.000000 0.000000 0.000000 10.000000 
R_front_hand01_01 0.000000 0.000000 0.000000 0.000000 0.000000 0.000000 10.000000 
R_front_hand02_01 0.000000 0.000000 0.000000 0.000000 0.000000 0.000000 10.000000 
R_front_hand03_01 0.000000 0.000000 0.000000 0.000000 0.000000 0.000000 10.000000 
R_front_hand01_02 0.000000 0.000000 0.000000 0.000000 0.000000 0.000000 10.000000 
R_front_hand02_02 0.000000 0.000000 0.000000 0.000000 0.000000 0.000000 10.000000 
R_front_hand03_02 0.000000 0.000000 0.000000 0.000000 0.000000 0.000000 10.000000 
null_rope01_connect 0.000000 0.000000 0.000000 0.000000 0.000000 0.000000 10.000000 
Rope1_Seg01 0.000000 0.000000 0.000000 0.000000 0.000000 0.000000 10.000000 
Rope1_Seg02 0.000000 0.000000 0.000000 0.000000 0.000000 0.000000 10.000000 
Rope1_Seg03 0.000000 0.000000 0.000000 0.000000 0.000000 0.000000 10.000000 
Rope1_Seg04 0.000000 0.000000 0.000000 0.000000 0.000000 0.000000 10.000000 
Rope1_Seg05 0.000000 0.000000 0.000000 0.000000 0.000000 0.000000 10.000000 
Rope1_Seg06 0.000000 0.000000 0.000000 0.000000 0.000000 0.000000 10.000000 
Rope1_Seg07 0.000000 0.000000 0.000000 0.000000 0.000000 0.000000 10.000000 
Rope1_Seg09 0.000000 0.000000 0.000000 0.000000 0.000000 0.000000 10.000000 
L_mid_hand01 0.000000 0.000000 0.000000 0.000000 0.000000 0.000000 10.000000 
L_mid_hand02 0.000000 0.000000 0.000000 0.000000 0.000000 0.000000 10.000000 
L_mid_hand03 0.000000 0.000000 0.000000 0.000000 0.000000 0.000000 10.000000 
null_rope02_connect 0.000000 0.000000 0.000000 0.000000 0.000000 0.000000 10.000000 
Rope2_Seg01 0.000000 0.000000 0.000000 0.000000 0.000000 0.000000 10.000000 
Rope2_Seg02 0.000000 0.000000 0.000000 0.000000 0.000000 0.000000 10.000000 
Rope2_Seg03 0.000000 0.000000 0.000000 0.000000 0.000000 0.000000 10.000000 
Rope2_Seg04 0.000000 0.000000 0.000000 0.000000 0.000000 0.000000 10.000000 
Rope2_Seg05 0.000000 0.000000 0.000000 0.000000 0.000000 0.000000 10.000000 
Rope2_Seg06 0.000000 0.000000 0.000000 0.000000 0.000000 0.000000 10.000000 
Rope2_Seg07 0.000000 0.000000 0.000000 0.000000 0.000000 0.000000 10.000000 
Rope2_Seg09 0.000000 0.000000 0.000000 0.000000 0.000000 0.000000 10.000000 
R_mid_hand01 0.000000 0.000000 0.000000 0.000000 0.000000 0.000000 10.000000 
R_mid_hand02 0.000000 0.000000 0.000000 0.000000 0.000000 0.000000 10.000000 
R_mid_hand03 0.000000 0.000000 0.000000 0.000000 0.000000 0.000000 10.000000 
spine02 0.000000 0.000000 0.000000 0.000000 0.000000 0.000000 10.000000 
spine03 0.000000 0.000000 0.000000 0.000000 0.000000 0.000000 10.000000 
pelvis 0.000000 0.000000 0.000000 0.000000 0.000000 0.000000 10.000000 
null_rope03_connect 0.000000 0.000000 0.000000 0.000000 0.000000 0.000000 10.000000 
null_rope04_connect 0.000000 0.000000 0.000000 0.000000 0.000000 0.000000 10.000000 
Rope3_Seg01 0.000000 0.000000 0.000000 0.000000 0.000000 0.000000 10.000000 
Rope3_Seg02 0.000000 0.000000 0.000000 0.000000 0.000000 0.000000 10.000000 
Rope3_Seg03 0.000000 0.000000 0.000000 0.000000 0.000000 0.000000 10.000000 
Rope3_Seg04 0.000000 0.000000 0.000000 0.000000 0.000000 0.000000 10.000000 
Rope3_Seg05 0.000000 0.000000 0.000000 0.000000 0.000000 0.000000 10.000000 
Rope3_Seg06 0.000000 0.000000 0.000000 0.000000 0.000000 0.000000 10.000000 
Rope3_Seg07 0.000000 0.000000 0.000000 0.000000 0.000000 0.000000 10.000000 
Rope3_Seg08 0.000000 0.000000 0.000000 0.000000 0.000000 0.000000 10.000000 
Rope3_Seg09 0.000000 0.000000 0.000000 0.000000 0.000000 0.000000 10.000000 
R_rear_hand01 0.000000 0.000000 0.000000 0.000000 0.000000 0.000000 10.000000 
R_rear_hand02 0.000000 0.000000 0.000000 0.000000 0.000000 0.000000 10.000000 
R_rear_hand03 0.000000 0.000000 0.000000 0.000000 0.000000 0.000000 10.000000 
Rope4_Seg01 0.000000 0.000000 0.000000 0.000000 0.000000 0.000000 10.000000 
Rope4_Seg02 0.000000 0.000000 0.000000 0.000000 0.000000 0.000000 10.000000 
Rope4_Seg03 0.000000 0.000000 0.000000 0.000000 0.000000 0.000000 10.000000 
Rope4_Seg04 0.000000 0.000000 0.000000 0.000000 0.000000 0.000000 10.000000 
Rope4_Seg05 0.000000 0.000000 0.000000 0.000000 0.000000 0.000000 10.000000 
Rope4_Seg06 0.000000 0.000000 0.000000 0.000000 0.000000 0.000000 10.000000 
Rope4_Seg07 0.000000 0.000000 0.000000 0.000000 0.000000 0.000000 10.000000 
Rope4_Seg08 0.000000 0.000000 0.000000 0.000000 0.000000 0.000000 10.000000 
Rope4_Seg09 0.000000 0.000000 0.000000 0.000000 0.000000 0.000000 10.000000 
L_rear_hand01 0.000000 0.000000 0.000000 0.000000 0.000000 0.000000 10.000000 
L_rear_hand02 0.000000 0.000000 0.000000 0.000000 0.000000 0.000000 10.000000 
L_rear_hand03 0.000000 0.000000 0.000000 0.000000 0.000000 0.000000 10.000000 
#Beginning of Data. Separated by tabs
#Fr	Tx	Ty	Tz	Rx	Ry	Rz	SF
[MASTER]
24 -0.000431 2875.000000 0.000000 0.001660 0.001660 0.001660 2875.000000
25 -0.000450 2999.999512 0.000000 0.001660 0.001660 0.001660 2999.999512
[root]
24 -36.384457 -54.643860 1491.815796 -91.728897 -11.584496 -89.471619 1493.259644
25 -37.189766 -52.946785 1496.341431 -91.728889 -11.584497 -89.471619 1497.739746
[chest]
24 -84.512650 -34.090519 0.000000 -2.185413 -0.096463 166.994568 91.129311
25 -84.512650 -34.090519 0.000000 -2.183869 -0.089457 167.091217 91.129311
[L_mid_tent01]
24 27.299135 22.179258 -249.918671 -20.370506 7.500907 14.701799 252.381668
25 27.299139 22.179258 -249.918671 -20.377127 7.686823 14.634048 252.381668
[R_mid_tent01]
24 23.228794 24.509907 226.238495 -165.720551 -9.691268 26.263012 228.744751
25 23.228794 24.509907 226.238495 -165.708511 -10.029867 26.175117 228.744751
[spine01]
24 -0.361383 -0.195265 0.000000 0.001953 0.001302 22.629944 0.410763
25 -0.361383 -0.195265 0.000000 0.001953 0.001303 22.586243 0.410763
[Bip01_Neck]
24 165.484543 71.581718 0.000119 176.643677 -1.657967 43.431911 180.302734
25 165.484543 71.581718 0.000119 176.643677 -1.657967 43.431911 180.302734
[L_humerus]
24 -13.983130 -135.272980 -120.471481 178.331207 8.257533 -90.094139 181.680161
25 -13.983130 -135.272980 -120.471481 178.413345 11.512006 -90.083702 181.680161
[R_humerus]
24 -13.983309 -135.273102 125.287651 -177.360138 -11.712739 -85.656036 184.909012
25 -13.983309 -135.273102 125.287651 -177.645370 -14.758574 -85.427559 184.909012
[weapon_bone]
24 235.964890 -300.705902 0.000000 0.000000 -89.951546 -128.212341 382.234833
25 235.964890 -300.705902 0.000000 0.000000 -89.951546 -128.212341 382.234833
[Bip01_Head]
24 213.607788 185.258545 17.675758 4.439535 -1.396677 -43.900352 283.304535
25 213.581543 185.332047 16.726543 4.438948 -1.362267 -43.898827 283.275177
[eye_left_bone]
24 -24.626970 125.451866 -64.772606 0.000000 -90.000000 -99.840431 143.318359
25 -24.626970 125.451866 -64.772606 0.000000 -90.000000 -99.840431 143.318359
[eye_right_bone]
24 -24.626970 125.451866 64.327362 0.000000 -89.965736 80.156380 143.117676
25 -24.626970 125.451866 64.327362 0.000000 -89.965736 80.156380 143.117676
[L_forearm]
24 322.776093 0.000000 -0.000119 0.000421 -0.002309 -110.667839 322.776093
25 322.776093 0.000000 -0.000119 0.000419 -0.002309 -110.579201 322.776093
[L_front_hand]
24 241.149185 -0.042021 -3.300071 -178.667953 -1.835447 -27.422350 241.171753
25 241.149185 -0.042021 -3.300071 -178.667953 -1.835447 -27.422350 241.171753
[L_weapon_bone]
24 156.183838 0.000000 0.000000 0.000014 0.000007 0.000001 156.183838
25 156.183838 0.000000 0.000000 0.000014 0.000007 0.000001 156.183838
[L_front_hand01_01]
24 86.095154 20.947098 -0.655860 -0.328329 -0.501879 70.955475 88.609184
25 86.095154 20.947098 -0.655860 -0.335131 -0.500211 71.723770 88.609184
[L_front_hand02_01]
24 86.935165 -11.437475 24.513514 147.981110 -57.745930 -53.867290 91.046425
25 86.935165 -11.437475 24.513514 149.028946 -58.148323 -55.100948 91.046425
[L_front_hand03_01]
24 86.637497 -14.123976 -20.424902 -147.939621 55.963066 -55.586479 90.126129
25 86.637497 -14.123976 -20.424902 -148.918808 56.366669 -56.764694 90.126129
[L_front_hand01_02]
24 71.020905 -0.000179 0.000030 0.000320 -0.002325 -105.671494 71.020905
25 71.020905 -0.000179 0.000030 0.000321 -0.002325 -105.725021 71.020905
[L_front_hand02_02]
24 71.020927 -0.000119 0.000060 0.000320 -0.002325 -105.671494 71.020927
25 71.020927 -0.000119 0.000060 0.000321 -0.002325 -105.725021 71.020927
[L_front_hand03_02]
24 71.020905 -0.000060 0.000060 0.000320 -0.002325 -105.671494 71.020905
25 71.020905 -0.000060 0.000060 0.000321 -0.002325 -105.725021 71.020905
[R_forearm]
24 322.776428 -0.000060 0.000030 0.201375 0.067373 -109.321373 322.776428
25 322.776428 -0.000060 0.000030 0.201431 0.067207 -109.226761 322.776428
[R_front_hand]
24 238.847015 -0.006795 2.210259 -2.635298 -10.645461 -26.312506 238.857239
25 238.847015 -0.006795 2.210259 -2.635298 -10.645461 -26.312506 238.857239
[R_weapon_bone]
24 155.664093 0.002503 -0.000030 0.003487 0.001180 -90.988930 155.664078
25 155.664093 0.002503 -0.000030 0.003487 0.001180 -90.988930 155.664078
[R_front_hand01_01]
24 87.624611 14.231146 22.918642 -150.319702 -58.611855 56.726898 91.683487
25 87.624611 14.231146 22.918642 -151.998245 -59.169323 58.688122 91.683487
[R_front_hand02_01]
24 89.356956 14.367283 -19.491137 150.553192 56.974056 58.956398 92.579636
25 89.356956 14.367283 -19.491137 152.130112 57.525925 60.828308 92.579636
[R_front_hand03_01]
24 87.286232 -22.307278 -0.143439 0.140549 -0.429018 -72.881996 90.091743
25 87.286232 -22.307278 -0.143439 0.147862 -0.431521 -74.042160 90.091743
[R_front_hand01_02]
24 71.020905 0.000060 0.000119 0.002323 -0.000334 106.381714 71.020905
25 71.020905 0.000060 0.000119 0.002323 -0.000334 106.381714 71.020905
[R_front_hand02_02]
24 71.020844 -0.000030 -0.000119 0.002323 -0.000334 106.381714 71.020836
25 71.020844 -0.000030 -0.000119 0.002323 -0.000334 106.381714 71.020836
[R_front_hand03_02]
24 71.020905 0.000000 0.000030 0.002323 -0.000334 106.381714 71.020905
25 71.020905 0.000000 0.000030 0.002323 -0.000334 106.381714 71.020905
[null_rope01_connect]
24 328.732483 0.000000 -0.000238 -165.245468 -66.769745 -109.092377 328.732483
25 328.732483 0.000000 -0.000238 -164.780334 -66.704475 -109.520729 328.732483
[Rope1_Seg01]
24 -0.000022 -0.000192 0.000065 93.557373 -1.590831 -94.331444 0.000204
25 -0.000023 -0.000198 0.000061 91.747467 -1.016175 -95.477234 0.000209
[Rope1_Seg02]
24 139.999863 -0.000179 0.000000 0.576288 3.780098 -3.438804 139.999863
25 139.999863 -0.000179 0.000000 1.017098 4.108898 -3.297991 139.999863
[Rope1_Seg03]
24 139.999924 0.000060 -0.000060 -3.299744 1.056402 -5.686566 139.999924
25 139.999924 0.000060 -0.000060 -3.371365 1.156303 -5.878585 139.999924
[Rope1_Seg04]
24 139.999924 -0.000060 -0.000119 4.454785 7.786214 -1.089060 139.999924
25 139.999924 -0.000060 -0.000119 5.254914 8.455737 -0.542908 139.999924
[Rope1_Seg05]
24 139.999832 0.000119 -0.000060 7.330933 8.609488 4.018712 139.999832
25 139.999832 0.000119 -0.000060 8.037028 9.245798 4.602725 139.999832
[Rope1_Seg06]
24 139.999954 0.000119 -0.000060 1.863019 2.905202 0.627819 139.999954
25 139.999954 0.000119 -0.000060 2.005474 3.100659 0.728913 139.999954
[Rope1_Seg07]
24 139.999985 0.000060 0.000000 0.949713 1.631918 0.232826 139.999985
25 139.999985 0.000060 0.000000 1.019976 1.740149 0.284259 139.999985
[Rope1_Seg09]
24 121.602913 0.000119 -0.000089 -89.793175 -1.359789 0.847147 121.602913
25 121.602913 0.000119 -0.000089 -89.793175 -1.359789 0.847147 121.602913
[L_mid_hand01]
24 103.859421 1.038730 8.195221 130.544373 -67.584526 -38.866943 104.187431
25 103.859421 1.038730 8.195221 130.544373 -67.584534 -38.866943 104.187431
[L_mid_hand02]
24 105.572853 -4.139662 -10.864139 -168.923172 43.409309 -73.498886 106.211075
25 105.572853 -4.139662 -10.864139 -168.923172 43.409321 -73.498909 106.211075
[L_mid_hand03]
24 104.641464 17.579376 -3.913581 -6.012627 17.808178 74.893677 106.179977
25 104.641464 17.579376 -3.913581 -6.012628 17.808174 74.893669 106.179977
[null_rope02_connect]
24 328.732849 0.000179 -0.000119 -158.643204 74.324532 -52.646160 328.732849
25 328.732849 0.000179 -0.000119 -157.642365 74.115082 -51.680458 328.732849
[Rope2_Seg01]
24 0.000098 -0.000127 0.000000 -43.836609 -5.928368 -82.880920 0.000160
25 0.000099 -0.000137 0.000000 -43.295116 -5.839763 -81.552597 0.000169
[Rope2_Seg02]
24 139.999741 -0.000060 -0.000119 -0.666538 10.184202 -4.930215 139.999756
25 139.999741 -0.000060 -0.000119 -1.053181 9.947369 -5.264846 139.999756
[Rope2_Seg03]
24 140.000107 0.000030 0.000000 0.555557 7.174047 -2.074650 140.000107
25 140.000107 0.000030 0.000000 0.492110 6.423943 -1.942319 140.000107
[Rope2_Seg04]
24 139.999802 0.000000 -0.000060 -1.237656 5.308773 -4.711211 139.999802
25 139.999802 0.000000 -0.000060 -1.498652 6.316509 -5.437858 139.999802
[Rope2_Seg05]
24 139.999985 -0.000060 0.000119 -0.990481 2.060173 -3.434806 139.999985
25 139.999985 -0.000060 0.000119 -1.080324 3.269577 -4.082358 139.999985
[Rope2_Seg06]
24 139.999893 -0.000030 -0.000119 -0.339512 1.194450 -1.411516 139.999893
25 139.999893 -0.000030 -0.000119 -0.342566 1.604382 -1.620593 139.999893
[Rope2_Seg07]
24 139.999893 0.000060 -0.000060 -0.206952 0.771651 -0.865257 139.999893
25 139.999893 0.000060 -0.000060 -0.204894 1.013817 -0.984394 139.999893
[Rope2_Seg09]
24 121.338966 0.000089 -0.000060 33.793236 -1.359788 -0.847141 121.338966
25 121.338966 0.000089 -0.000060 33.793236 -1.359788 -0.847141 121.338966
[R_mid_hand01]
24 104.680779 11.144459 -10.335981 -16.212065 45.237247 70.462852 105.778534
25 104.680779 11.144459 -10.335981 -16.212059 45.237240 70.462852 105.778534
[R_mid_hand02]
24 104.070427 2.443552 8.231699 49.067383 -67.749779 39.286449 104.424065
25 104.070427 2.443552 8.231699 49.067371 -67.749794 39.286461 104.424065
[R_mid_hand03]
24 106.028137 -11.221827 -5.996406 -177.101105 15.551026 -76.585571 106.788818
25 106.028137 -11.221827 -5.996406 -177.101105 15.551026 -76.585571 106.788818
[spine02]
24 129.756927 0.001550 0.000119 0.482827 -4.031020 -14.725173 129.756927
25 129.756927 0.001550 0.000119 0.473035 -4.032232 -14.586387 129.756927
[spine03]
24 78.613953 0.081635 -4.899015 1.970259 3.795625 17.599558 78.766495
25 78.613945 0.081635 -4.899015 1.964159 3.798764 17.520529 78.766487
[pelvis]
24 169.435242 0.051022 0.000000 -0.068942 -0.178280 16.373295 169.435257
25 169.435242 0.051022 0.000000 -0.068685 -0.178378 16.208391 169.435257
[null_rope03_connect]
24 -1.257226 -2.466202 137.391083 0.000000 -89.492554 59.705723 137.418976
25 -1.257226 -2.466202 137.391083 0.000000 -89.484138 59.876698 137.418976
[null_rope04_connect]
24 -1.259640 -2.480268 -137.844437 0.000000 -89.492554 59.705723 137.872513
25 -1.259640 -2.480268 -137.844437 0.000000 -89.484138 59.876698 137.872513
[Rope3_Seg01]
24 0.000010 0.000038 -0.000114 5.768239 28.846310 -103.764030 0.000121
25 0.000010 0.000038 -0.000114 5.168326 29.801567 -104.436165 0.000121
[Rope3_Seg02]
24 139.999924 -0.000119 0.000060 1.357440 -5.199318 2.093893 139.999924
25 139.999924 -0.000119 0.000060 1.388481 -5.219968 2.493390 139.999924
[Rope3_Seg03]
24 139.999924 -0.000119 0.000119 1.842006 -6.676645 2.773213 139.999924
25 139.999924 -0.000119 0.000119 1.875232 -6.878317 3.467245 139.999924
[Rope3_Seg04]
24 139.999924 0.000119 0.000000 4.148250 -13.767521 0.487661 139.999924
25 139.999924 0.000119 0.000000 4.198647 -14.862659 2.753204 139.999924
[Rope3_Seg05]
24 139.999924 -0.000238 0.000060 2.351183 -1.922090 9.993563 139.999924
25 139.999924 -0.000238 0.000060 2.209076 -2.612398 9.879282 139.999924
[Rope3_Seg06]
24 139.999893 -0.000119 -0.000060 0.973761 9.813181 10.539170 139.999893
25 139.999893 -0.000119 -0.000060 0.582625 10.431529 7.987434 139.999893
[Rope3_Seg07]
24 139.999771 0.000060 -0.000119 0.623429 2.965354 4.887523 139.999771
25 139.999771 0.000060 -0.000119 0.616729 3.043970 3.957038 139.999771
[Rope3_Seg08]
24 139.999985 -0.000060 0.000000 0.544051 1.566753 2.759451 139.999985
25 139.999985 -0.000060 0.000000 0.572359 1.598126 2.255377 139.999985
[Rope3_Seg09]
24 90.185997 -0.000179 -0.000060 89.793228 -1.359877 -0.847183 90.185997
25 90.185997 -0.000179 -0.000060 89.793228 -1.359877 -0.847183 90.185997
[R_rear_hand01]
24 103.366196 -6.073594 -10.757982 -177.714203 24.565960 -73.910950 104.101845
25 103.366196 -6.073594 -10.757982 -177.714203 24.565960 -73.910950 104.101845
[R_rear_hand02]
24 100.509819 12.039542 -7.992327 -12.874833 36.868488 72.167213 101.543350
25 100.509819 12.039542 -7.992327 -12.874829 36.868488 72.167213 101.543350
[R_rear_hand03]
24 101.539970 5.215704 5.435467 71.484581 -71.816628 21.513813 101.819031
25 101.539970 5.215704 5.435467 71.484581 -71.816628 21.513813 101.819031
[Rope4_Seg01]
24 0.000010 0.000038 -0.000114 -92.257790 33.511330 -85.795532 0.000121
25 0.000010 0.000038 -0.000114 -92.283592 33.193779 -85.803696 0.000121
[Rope4_Seg02]
24 139.999985 0.000060 0.000119 -0.633377 0.163996 -7.383440 139.999985
25 139.999985 0.000060 0.000119 -0.606983 0.147654 -7.041368 139.999985
[Rope4_Seg03]
24 139.999924 0.000000 -0.000238 -1.035561 0.313861 -7.678015 139.999924
25 139.999924 0.000000 -0.000238 -0.978452 0.290738 -7.345538 139.999924
[Rope4_Seg04]
24 139.999985 0.000000 0.000119 -1.746604 2.078017 -8.581544 139.999985
25 139.999985 0.000000 0.000119 -1.623177 1.993573 -8.151299 139.999985
[Rope4_Seg05]
24 139.999802 -0.000060 -0.000119 -1.216622 -0.488142 -6.465979 139.999802
25 139.999802 -0.000060 -0.000119 -1.176247 -0.549627 -6.406059 139.999802
[Rope4_Seg06]
24 139.999924 0.000000 0.000060 -0.164889 -4.269196 -3.367985 139.999924
25 139.999924 0.000000 0.000060 -0.225151 -4.172540 -3.558921 139.999924
[Rope4_Seg07]
24 139.999802 0.000000 0.000000 -0.216853 -3.586035 -2.822164 139.999802
25 139.999802 0.000000 0.000000 -0.303707 -3.326288 -2.948625 139.999802
[Rope4_Seg08]
24 139.999924 0.000000 0.000119 -2.066205 -1.940714 -2.353012 139.999924
25 139.999924 0.000000 0.000119 -2.084261 -1.780325 -2.355581 139.999924
[Rope4_Seg09]
24 90.185791 0.000060 0.000060 -135.617828 2.228885 0.850567 90.185791
25 90.185791 0.000060 0.000060 -135.617828 2.228885 0.850567 90.185791
[L_rear_hand01]
24 101.696655 -8.392275 -7.654577 -12.874829 -36.868488 107.832764 102.329041
25 101.696655 -8.392275 -7.654577 -12.874834 -36.868500 107.832779 102.329041
[L_rear_hand02]
24 102.726799 -1.568258 5.773216 71.484581 71.816628 158.486160 102.900848
25 102.726799 -1.568258 5.773216 71.484627 71.816643 158.486176 102.900848
[L_rear_hand03]
24 104.552910 9.721220 -10.420293 -177.714203 -24.565960 -106.089035 105.519653
25 104.552910 9.721220 -10.420293 -177.714203 -24.565966 -106.089035 105.519653
